<?xml version="1.0" encoding="utf-8"?>
<!-- Generator: Adobe Illustrator 24.3.0, SVG Export Plug-In . SVG Version: 6.00 Build 0)  -->
<svg version="1.1" id="Layer_2" xmlns="http://www.w3.org/2000/svg" xmlns:xlink="http://www.w3.org/1999/xlink" x="0px" y="0px"
	 viewBox="0 0 612 792" style="enable-background:new 0 0 612 792;" xml:space="preserve">
<path d="M436.1,361.2c0,0,0-0.1,0-0.1c-3.1-11.5-7.6-22.4-13.5-32.5c-5.9-10.2-13.1-19.6-21.4-27.9c-8.3-8.3-17.7-15.5-27.9-21.4
	c-10-5.8-20.9-10.4-32.4-13.4c0,0-0.1,0-0.1,0c-11.1-3-22.8-4.6-34.9-4.6c-12,0-23.7,1.6-34.8,4.5c0,0-0.1,0-0.1,0
	c-11.5,3.1-22.4,7.6-32.5,13.5c-10.2,5.9-19.6,13.1-27.9,21.4c-8.3,8.3-15.5,17.7-21.4,27.9c-5.8,10-10.4,20.9-13.4,32.3
	c0,0,0,0.1,0,0.1c-3,11.1-4.6,22.8-4.6,34.9c0,12,1.6,23.7,4.5,34.8c0,0,0,0.1,0,0.1c3.1,11.5,7.6,22.4,13.5,32.5
	c5.9,10.2,13.1,19.6,21.4,27.9c8.3,8.3,17.7,15.5,27.9,21.4c10,5.8,20.9,10.4,32.4,13.4c0,0,0.1,0,0.1,0c11.1,3,22.8,4.6,34.9,4.6
	c12,0,23.7-1.6,34.8-4.5c0,0,0.1,0,0.1,0c11.5-3.1,22.4-7.6,32.5-13.5c10.2-5.9,19.6-13.1,27.9-21.4c8.3-8.3,15.5-17.7,21.4-27.9
	c5.8-10,10.4-20.9,13.4-32.4c0,0,0-0.1,0-0.1c3-11.1,4.6-22.8,4.6-34.9C440.7,384,439.1,372.3,436.1,361.2z M433.3,361.9l-89,23.8
	c-0.9-3.4-2.2-6.6-4-9.6l79.8-46.1C425.9,340,430.3,350.6,433.3,361.9z M306,432.8c-3.3,0-6.5-0.4-9.5-1.2c-3.2-0.8-6.1-2.1-8.9-3.7
	c-2.8-1.6-5.4-3.6-7.6-5.9c-2.3-2.3-4.2-4.8-5.9-7.6c-1.6-2.8-2.8-5.7-3.7-8.9c-0.8-3-1.2-6.2-1.2-9.5s0.4-6.5,1.2-9.5
	c0.8-3.1,2.1-6.1,3.7-8.9c1.6-2.8,3.6-5.4,5.9-7.6c2.3-2.3,4.8-4.2,7.6-5.9c2.8-1.6,5.7-2.8,8.9-3.7c3-0.8,6.2-1.2,9.5-1.2
	s6.5,0.4,9.5,1.2c3.2,0.8,6.1,2.1,8.9,3.7c2.8,1.6,5.4,3.6,7.6,5.9c2.3,2.3,4.2,4.8,5.9,7.6c1.6,2.8,2.8,5.7,3.7,8.9
	c0.8,3,1.2,6.2,1.2,9.5s-0.4,6.5-1.2,9.5c-0.8,3.2-2.1,6.1-3.7,8.9c-1.6,2.8-3.6,5.4-5.9,7.6c-2.3,2.3-4.8,4.2-7.6,5.9
	c-2.8,1.6-5.7,2.8-8.9,3.7C312.5,432.4,309.3,432.8,306,432.8z M399.2,302.8l-65.1,65.1c-2.4-2.5-5.2-4.6-8.2-6.3l46.1-79.8
	C381.9,287.6,391.1,294.7,399.2,302.8z M340.1,268.6l-23.8,89c-3.3-0.9-6.7-1.3-10.3-1.3v-92.1C317.8,264.2,329.2,265.7,340.1,268.6
	z M271.9,268.6l23.8,89c-3.4,0.9-6.6,2.2-9.6,4l-46.1-79.8C250,276.1,260.6,271.7,271.9,268.6z M212.8,302.8l65.1,65.1
	c-2.5,2.4-4.6,5.2-6.3,8.2l-79.8-46.1C197.6,320.1,204.7,310.9,212.8,302.8z M178.7,361.9l89,23.8c-0.9,3.3-1.3,6.7-1.3,10.3h-92.1
	C174.2,384.2,175.7,372.8,178.7,361.9z M178.7,430.1l89-23.9c0.9,3.4,2.2,6.6,4,9.6l-79.8,46.1C186.1,452,181.7,441.4,178.7,430.1z
	 M212.8,489.2l65.1-65.1c2.4,2.5,5.2,4.6,8.2,6.3l-46.1,79.8C230.1,504.4,220.9,497.3,212.8,489.2z M271.9,523.3l23.8-89
	c3.3,0.9,6.7,1.3,10.3,1.3v92.1C294.2,527.8,282.8,526.3,271.9,523.3z M340.1,523.3l-23.8-89c3.4-0.9,6.6-2.2,9.6-4l46.1,79.8
	C362,515.9,351.4,520.3,340.1,523.3z M399.2,489.2l-65.1-65.1c2.5-2.4,4.6-5.2,6.3-8.2l79.8,46.1
	C414.4,471.9,407.3,481.1,399.2,489.2z M433.3,430.1l-89-23.9c0.9-3.3,1.3-6.7,1.3-10.3h92.1C437.8,407.8,436.3,419.2,433.3,430.1z"
	/>
</svg>
